<?xml version="1.0" encoding="UTF-8"?>
<svg width="61px" height="61px" viewBox="0 0 61 61" version="1.1" xmlns="http://www.w3.org/2000/svg" xmlns:xlink="http://www.w3.org/1999/xlink">
    <!-- Generator: Sketch 61.2 (89653) - https://sketch.com -->
    <title>logo</title>
    <desc>Created with Sketch.</desc>
    <g id="Welcome" stroke="none" stroke-width="1" fill="none" fill-rule="evenodd">
        <g id="Desktop" transform="translate(-42.000000, -16.000000)" fill="#3CAEA3">
            <path d="M102.481487,46.9975179 C102.259439,63.3644859 88.9213167,76.5639171 72.5,76.5639171 L72.9410361,76.5613035 C76.4514527,75.845293 79.3593774,66.6336489 80.2296488,54.3110446 C92.4507224,53.4477862 101.611563,50.5800283 102.45712,47.1082323 Z M72.5,16.6011968 C89.0598721,16.6011968 102.484301,30.024309 102.484301,46.582557 L102.481205,46.1675141 C101.805422,42.6458362 92.5788061,39.7260079 80.2258862,38.8536716 C79.315395,26.0425553 76.2014086,16.6061674 72.5,16.6061674 C68.7983021,16.6061674 65.6841183,26.0440302 64.773544,38.8562241 C51.9602701,39.766857 42.5209323,42.8809329 42.5209323,46.582557 C42.5209323,50.2837954 51.9583035,53.397608 64.7699878,54.3081841 C65.6401498,66.6321511 68.5482619,75.8452348 72.0589639,76.5613035 C55.7024725,76.3249761 42.5156992,62.9935834 42.5156992,46.582557 C42.5156992,30.024309 55.9401279,16.6011968 72.5,16.6011968 Z M72.5,40 C76.0898509,40 79,42.9101491 79,46.5 C79,50.0898509 76.0898509,53 72.5,53 C68.9101491,53 66,50.0898509 66,46.5 C66,42.9101491 68.9101491,40 72.5,40 Z" id="logo"></path>
        </g>
    </g>
</svg>